<?xml version="1.0" encoding="utf-8"?>
<!-- Generator: Adobe Illustrator 19.2.0, SVG Export Plug-In . SVG Version: 6.00 Build 0)  -->
<svg version="1.1" id="Capa_1" xmlns="http://www.w3.org/2000/svg" xmlns:xlink="http://www.w3.org/1999/xlink" x="0px" y="0px"
	 viewBox="0 0 78 78" style="enable-background:new 0 0 78 78;" xml:space="preserve">
<style type="text/css">
	.st0{fill:#921E00;}
</style>
<path class="st0" d="M71.4,1H6.6C3.5,1,1,3.5,1,6.5v65c0,3,2.5,5.5,5.6,5.5h64.8c3.1,0,5.6-2.5,5.6-5.5v-65C77,3.5,74.5,1,71.4,1z
	 M23.6,65.8H12.3V29.5h11.3V65.8z M17.9,24.5c-3.6,0-6.5-2.9-6.5-6.5s2.9-6.5,6.5-6.5s6.5,2.9,6.5,6.5S21.5,24.5,17.9,24.5z
	 M65.8,65.8H54.5V48.1c0-4.2-0.1-9.6-5.9-9.6c-5.9,0-6.8,4.6-6.8,9.3v17.9H30.6V29.5h10.8v5h0.2c1.5-2.9,5.2-5.9,10.7-5.9
	c11.4,0,13.5,7.5,13.5,17.3V65.8z"/>
</svg>
