<?xml version="1.0" encoding="utf-8"?>
<!-- Generator: Adobe Illustrator 19.2.0, SVG Export Plug-In . SVG Version: 6.00 Build 0)  -->
<svg version="1.1" id="Capa_1" xmlns="http://www.w3.org/2000/svg" xmlns:xlink="http://www.w3.org/1999/xlink" x="0px" y="0px"
	 viewBox="0 0 78 78" style="enable-background:new 0 0 78 78;" xml:space="preserve">
<style type="text/css">
	.st0{fill:#921E00;}
</style>
<path class="st0" d="M77,38.9C77,59.8,60,77,39,77S1,59.8,1,38.9S18,1,39,1S77,18,77,38.9z M48.5,69.9c13.1-4.6,22.6-16.6,22.6-31
	c0-17.7-14.3-32-32.1-32c-17.7,0-32.1,14.3-32.1,32c0,14.5,9.7,26.6,23,31v-6.1c0-3.7,1.5-5.5,3.1-6.6c-8.2-0.9-17.1-3.8-17.1-18.1
	c0-4,1.4-7.3,3.8-9.8c-0.4-1-1.6-4.6,0.4-9.7c0,0,3.1-1,10.1,3.8c2.9-0.8,6-1.2,9.1-1.2c3.2,0,6.2,0.4,9.2,1.2
	c7-4.7,10.1-3.8,10.1-3.8c2,5,0.8,8.7,0.4,9.7c2.4,2.6,3.8,5.8,3.8,9.8c0,14.2-8.8,17.2-17.1,18.1c1.5,1.1,3.1,3,3.1,6.6v6.1
	C48.8,69.9,48.5,69.9,48.5,69.9z"/>
</svg>
