<?xml version="1.0" encoding="utf-8"?>
<!-- Generator: Adobe Illustrator 19.2.0, SVG Export Plug-In . SVG Version: 6.00 Build 0)  -->
<svg version="1.1" id="Capa_1" xmlns="http://www.w3.org/2000/svg" xmlns:xlink="http://www.w3.org/1999/xlink" x="0px" y="0px"
	 viewBox="0 0 78 78" style="enable-background:new 0 0 78 78;" xml:space="preserve">
<style type="text/css">
	.st0{fill:#921E00;}
</style>
<path class="st0" d="M77,15.2c-2.7,1.2-5.9,2.1-9,2.5c3.1-1.9,5.7-5,6.9-8.5c-2.9,1.9-6.3,3.1-9.8,3.7c-2.9-3.1-6.9-5-11.3-5
	c-8.6,0-15.5,6.8-15.5,15.3c0,1.2,0.2,2.3,0.4,3.5c-13.2-0.5-24.5-6.7-32.3-16c-1.3,2.3-2.1,5-2.1,7.6c0,5.4,2.7,10.1,6.9,12.8
	c-2.5,0-5-0.8-7.1-1.9v0.2c0,7.4,5.4,13.7,12.6,15.1c-1.3,0.4-2.7,0.6-4.2,0.6c-1,0-1.9,0-2.9-0.2c1.9,6.2,7.7,10.5,14.5,10.7
	c-5.2,4.1-12.2,6.6-19.3,6.6c-1.3,0-2.5,0-3.8-0.2c6.9,4.5,15.1,7,23.9,7c28.7,0,44.4-23.4,44.4-43.8v-2.1
	C72.4,21,74.9,18.3,77,15.2z"/>
</svg>
